<svg width="29" height="28" viewBox="0 0 29 28" fill="none" xmlns="http://www.w3.org/2000/svg">
<path d="M0.851593 15.7796C1.59625 16.7508 2.72738 17.3076 3.95515 17.3076H12.018L10.4021 21.6014C10.3754 21.6743 10.3554 21.7505 10.3454 21.8284C9.78734 25.867 12.4078 27.5955 13.8705 27.9451C14.3052 28.0479 14.7567 27.8722 15.005 27.5043L23.2444 15.264C23.361 15.09 23.4243 14.8845 23.4243 14.6741V3.37185C23.4243 1.52737 21.9166 0.0276299 20.0625 0.0276299H6.57537C4.82283 0.0276299 3.27355 1.20257 2.81045 2.88465L0.188335 12.3987C-0.136515 13.5753 0.105038 14.8083 0.84804 15.7794L0.851593 15.7796ZM2.2476 12.9591L4.86971 3.44335C5.07962 2.68103 5.78262 2.14742 6.57726 2.14742H20.0644C20.7424 2.14742 21.2938 2.69596 21.2938 3.37042V14.3511L13.7257 25.5935C13.076 25.1858 12.2014 24.2528 12.4446 22.2294L14.5553 16.6179C14.6786 16.2931 14.6319 15.9269 14.432 15.6418C14.2321 15.3568 13.9056 15.1861 13.5557 15.1861H3.95504C3.39862 15.1861 2.88554 14.9342 2.54734 14.4934C2.20917 14.0526 2.10099 13.4944 2.2476 12.9591ZM26.8247 14.6743V1.08881C26.8247 0.502163 27.3011 0.0282001 27.8909 0.0282001C28.4806 0.0282001 28.957 0.502163 28.957 1.08881V14.6743C28.957 15.261 28.4806 15.7349 27.8909 15.7349C27.3011 15.7349 26.8247 15.261 26.8247 14.6743Z" fill="#BCBDBD"/>
</svg>
