<svg width="25" height="15" viewBox="0 0 25 15" fill="none" xmlns="http://www.w3.org/2000/svg">
<path d="M24.3886 6.26659V1.81179C24.3886 1.42539 24.075 1.11179 23.6886 1.11179H19.2338V2.51179H21.9988L21.4122 3.09839C20.918 3.59119 20.2992 3.94119 19.623 4.11059L19.336 4.18199C17.81 4.56419 16.6816 5.81719 16.459 7.37259L16.3134 8.39459L16.1678 9.41659C16.0264 10.4064 15.3082 11.203 14.3352 11.4466L14.0496 11.518C13.1256 11.749 12.2814 12.2264 11.6094 12.8984L12.6006 13.8882C13.0934 13.394 13.7108 13.044 14.3898 12.8746L14.674 12.8032C16.2 12.4224 17.3284 11.1694 17.5524 9.61399L17.698 8.59199L17.845 7.57139C17.9864 6.58019 18.7046 5.78359 19.6762 5.53999L19.9632 5.46859C20.8844 5.23759 21.7286 4.76159 22.402 4.08819L22.9886 3.50159V6.26659H24.3886Z" fill="#BCBDBD"/>
<path d="M13.3886 6.26659V1.81179C13.3886 1.42539 13.075 1.11179 12.6886 1.11179H8.23378V2.51179H10.9988L10.4122 3.09839C9.91797 3.59119 9.29918 3.94119 8.62297 4.11059L8.33598 4.18199C6.80998 4.56419 5.68157 5.81719 5.45897 7.37259L5.31337 8.39459L5.16777 9.41659C5.02637 10.4064 4.30817 11.203 3.33517 11.4466L3.04957 11.518C2.12557 11.749 1.28137 12.2264 0.609375 12.8984L1.60057 13.8882C2.09337 13.394 2.71077 13.044 3.38977 12.8746L3.67397 12.8032C5.19998 12.4224 6.32837 11.1694 6.55237 9.61399L6.69797 8.59199L6.84497 7.57139C6.98637 6.58019 7.70458 5.78359 8.67618 5.53999L8.96317 5.46859C9.88437 5.23759 10.7286 4.76159 11.402 4.08819L11.9886 3.50159V6.26659H13.3886Z" fill="#BCBDBD"/>
</svg>
