<svg width="29" height="28" viewBox="0 0 29 28" fill="none" xmlns="http://www.w3.org/2000/svg">
<path d="M28.1523 12.2221C27.4077 11.2509 26.2765 10.6941 25.0488 10.6941H16.9859L18.6018 6.40036C18.6285 6.32744 18.6485 6.25121 18.6585 6.17332C19.2166 2.13475 16.5961 0.406168 15.1334 0.0565927C14.6987 -0.0461546 14.2472 0.129512 13.999 0.497423L5.75954 12.7377C5.64292 12.9117 5.57962 13.1172 5.57962 13.3276V24.6299C5.57962 26.4743 7.08728 27.9741 8.9414 27.9741H22.4285C24.1811 27.9741 25.7304 26.7991 26.1935 25.1171L28.8156 15.603C29.1404 14.4264 28.8989 13.1934 28.1559 12.2223L28.1523 12.2221ZM26.7563 15.0426L24.1342 24.5584C23.9243 25.3207 23.2213 25.8543 22.4266 25.8543H8.93951C8.26151 25.8543 7.71008 25.3057 7.71008 24.6313V13.6506L15.2782 2.40819C15.9279 2.81587 16.8025 3.74889 16.5593 5.77231L14.4486 11.3838C14.3253 11.7086 14.372 12.0748 14.5719 12.3599C14.7718 12.6449 15.0983 12.8156 15.4482 12.8156H25.0489C25.6053 12.8156 26.1184 13.0675 26.4566 13.5083C26.7947 13.9491 26.9029 14.5073 26.7563 15.0426ZM2.17923 13.3274V26.9129C2.17923 27.4995 1.70278 27.9735 1.11305 27.9735C0.523328 27.9735 0.046875 27.4995 0.046875 26.9129V13.3274C0.046875 12.7407 0.523328 12.2668 1.11305 12.2668C1.70278 12.2668 2.17923 12.7407 2.17923 13.3274Z" fill="#BCBDBD"/>
</svg>
