<svg width="33" height="33" viewBox="0 0 33 33" fill="none" xmlns="http://www.w3.org/2000/svg">
<g clip-path="url(#clip0_798_83)">
<path d="M16.5002 0.659912C7.75186 0.659912 0.660156 7.75161 0.660156 16.4999C0.660156 25.2482 7.75186 32.3399 16.5002 32.3399C25.2485 32.3399 32.3402 25.2482 32.3402 16.4999C32.3402 7.75161 25.2485 0.659912 16.5002 0.659912ZM12.6227 23.0653H9.41506V12.7429H12.6227V23.0653ZM10.9991 11.4757C9.98596 11.4757 9.33091 10.7579 9.33091 9.87021C9.33091 8.96436 10.0058 8.26806 11.0403 8.26806C12.0749 8.26806 12.7085 8.96436 12.7283 9.87021C12.7283 10.7579 12.0749 11.4757 10.9991 11.4757ZM24.3377 23.0653H21.1301V17.3447C21.1301 16.0132 20.6648 15.109 19.5048 15.109C18.6188 15.109 18.0924 15.7211 17.8598 16.3102C17.774 16.5197 17.7525 16.8167 17.7525 17.1121V23.0636H14.5433V16.0346C14.5433 14.746 14.502 13.6685 14.4591 12.7412H17.246L17.3928 14.1751H17.4572C17.8796 13.5019 18.9141 12.5086 20.645 12.5086C22.7553 12.5086 24.3377 13.9226 24.3377 16.9619V23.0653Z" fill="white"/>
</g>
<defs>
<clipPath id="clip0_798_83">
<rect width="33" height="33" fill="white"/>
</clipPath>
</defs>
</svg>
