<svg width="84" height="84" viewBox="0 0 84 84" fill="none" xmlns="http://www.w3.org/2000/svg">
<g clip-path="url(#clip0_94_6685)">
<path fill-rule="evenodd" clip-rule="evenodd" d="M41.9994 0.109985C53.5664 0.109985 64.0394 4.79898 71.6204 12.38C79.2004 19.96 83.8894 30.433 83.8894 42C83.8894 53.567 79.2004 64.04 71.6204 71.621C64.0394 79.201 53.5664 83.89 41.9994 83.89C30.4324 83.89 19.9594 79.201 12.3784 71.621C4.79837 64.04 0.109375 53.567 0.109375 42C0.109375 30.433 4.79837 19.96 12.3794 12.379C19.9594 4.79898 30.4324 0.109985 41.9994 0.109985ZM61.3534 43.734C61.6574 43.565 61.9204 43.313 62.1064 42.99C62.6534 42.039 62.3254 40.825 61.3744 40.278L46.9784 31.966L32.7484 23.75C32.4224 23.518 32.0234 23.382 31.5934 23.382C30.4914 23.382 29.5984 24.275 29.5984 25.377V42V58.623H29.6064C29.6064 58.959 29.6914 59.3 29.8704 59.613C30.4174 60.564 31.6314 60.892 32.5824 60.345L46.9784 52.033L61.3534 43.734Z" fill="white"/>
</g>
<defs>
<clipPath id="clip0_94_6685">
<rect width="84" height="84" fill="white"/>
</clipPath>
</defs>
</svg>
