<svg width="33" height="33" viewBox="0 0 33 33" fill="none" xmlns="http://www.w3.org/2000/svg">
<g clip-path="url(#clip0_798_81)">
<path d="M13.7582 19.2908C14.191 19.6132 14.6245 19.9368 15.0585 20.2599C14.6054 20.7068 14.1516 21.1541 13.7002 21.6006C13.6581 21.6438 13.6188 21.6889 13.5775 21.7328L13.5993 21.4372C13.6513 20.7221 13.7036 20.0059 13.7582 19.2908ZM17.3186 12.9867C15.1173 14.3752 12.916 15.7675 10.7135 17.1552C10.6688 17.1831 10.6199 17.2049 10.5702 17.2274C10.8586 18.1495 11.147 19.072 11.4347 19.9948C11.6402 20.6442 11.8533 21.292 12.0477 21.944C12.1279 22.2145 12.267 22.3592 12.5603 22.3081C12.6417 21.2045 12.7196 20.1018 12.8029 18.9979C12.8124 18.8691 12.8277 18.7385 12.8434 18.6098C12.7189 18.5383 12.7735 18.4016 12.8166 18.3565C12.8927 18.2782 12.9687 18.1984 13.0447 18.1189C13.0718 18.0937 13.1001 18.0681 13.1264 18.0429C13.1646 18.0032 13.2017 17.9635 13.2395 17.9241C13.4217 17.7545 13.6031 17.5819 13.7853 17.4115C13.8892 17.3134 13.9943 17.2148 14.0986 17.117C14.3812 16.8523 14.6635 16.588 14.9511 16.3275C15.6822 15.6628 16.4282 15.0135 17.1609 14.3515C18.0948 13.5066 19.0264 12.6586 19.9516 11.8041C20.0196 11.7098 20.0635 11.5883 20.1231 11.4844C19.9573 11.5066 19.7629 11.4791 19.6311 11.5566C18.8522 12.0207 18.086 12.5031 17.3186 12.9867ZM32.1133 16.1113C32.1133 24.9479 24.9497 32.1115 16.1131 32.1115C7.27609 32.1115 0.113281 24.9479 0.113281 16.1113C0.113281 7.27427 7.27609 0.111084 16.1131 0.111084C24.9497 0.111084 32.1133 7.27427 32.1133 16.1113ZM23.2579 9.73687C23.2495 9.67575 23.2434 9.61311 23.2312 9.55314C23.0903 8.87399 22.7182 8.66886 22.052 8.8969C21.9543 8.92975 21.8542 8.95114 21.7549 8.97826C21.3832 9.13182 21.0154 9.29607 20.6384 9.43702C20.0134 9.6727 19.3824 9.8931 18.7522 10.1204C18.3679 10.2804 17.9863 10.4477 17.5986 10.5994C16.6272 10.9791 15.654 11.3515 14.6811 11.7273C12.6787 12.4993 10.6761 13.2709 8.67221 14.0429C8.22224 14.2167 7.76845 14.3813 7.32307 14.5666C6.93154 14.7281 6.532 14.8848 6.17141 15.1017C6.01175 15.1976 5.83604 15.4497 5.85437 15.6097C5.87194 15.7713 6.11908 15.9096 6.27034 16.054C6.29785 16.0803 6.34483 16.0887 6.38456 16.101C7.44607 16.4295 8.50758 16.758 9.56985 17.0857C9.56412 17.1965 9.57673 17.3095 9.61149 17.4215L9.99766 18.6602L10.5053 20.2855C10.5649 20.4742 10.6249 20.6595 10.6837 20.8447C10.8281 21.2974 10.9782 21.7649 11.1146 22.2225C11.4117 23.2153 12.2131 23.292 12.4519 23.292C12.4874 23.292 12.5252 23.2897 12.5626 23.2882C12.5993 23.2897 12.636 23.2909 12.6723 23.2909C13.2853 23.2909 13.6791 22.9532 13.9137 22.7512C13.9568 22.7133 13.9981 22.6786 14.0279 22.6557C14.0764 22.6194 14.1219 22.58 14.1608 22.5361C14.1914 22.5044 14.2193 22.4715 14.2494 22.4402C14.2987 22.3852 14.3449 22.3337 14.3858 22.2932C14.7422 21.9402 15.0978 21.5884 15.4549 21.2362L15.8782 20.8187C15.9378 20.86 15.9974 20.9009 16.0573 20.9417C17.0203 21.6606 17.9817 22.3829 18.9481 23.098C19.6693 23.6312 20.1735 23.493 20.5226 22.6782C20.6712 21.991 20.819 21.3023 20.9665 20.6167C21.1017 19.931 21.2354 19.2473 21.3691 18.5632C21.455 18.1873 21.5398 17.8103 21.6246 17.4348C21.85 16.376 22.075 15.316 22.2992 14.2568C22.3721 13.9187 22.4436 13.5811 22.5161 13.243C22.5337 13.1628 22.5547 13.0822 22.5708 13.0012C22.8007 11.913 23.0291 10.8255 23.2579 9.73687Z" fill="white"/>
</g>
<defs>
<clipPath id="clip0_798_81">
<rect width="33" height="33" fill="white"/>
</clipPath>
</defs>
</svg>
