<svg width="32" height="32" viewBox="0 0 32 32" fill="none" xmlns="http://www.w3.org/2000/svg">
<g clip-path="url(#clip0_798_87)">
<path fill-rule="evenodd" clip-rule="evenodd" d="M27.286 4.70399C21.0531 -1.53429 10.9477 -1.53465 4.7152 4.70399C-0.664401 10.0886 -1.49474 18.5267 2.70493 24.841L2.70384 24.8417C2.82195 25.0207 2.8561 25.252 2.7758 25.4684L0.527876 31.487L6.50162 29.2515C6.71129 29.1588 6.96203 29.1719 7.16734 29.3079C17.6889 36.2998 31.9602 28.7976 31.9602 15.9999C31.9606 11.5886 30.1742 7.59489 27.286 4.70399ZM13.6811 15.6049C14.8312 17.1824 16.2902 18.4168 18.0098 19.3305C18.5189 18.7766 18.9284 18.179 19.5651 18.0244V18.0236C19.8554 17.9535 20.1621 17.9676 20.455 18.0618L23.4693 19.0312C24.1416 19.2472 24.6532 19.8721 24.5813 20.6123C24.5242 21.1983 24.3905 23.1507 24.2212 23.5868C23.9671 24.2419 23.32 24.6431 22.6193 24.5911C14.5042 23.9899 8.0184 17.4981 7.41772 9.37533C7.34867 8.442 8.00931 7.7411 8.98174 7.64653C13.0353 7.25116 12.4408 6.8667 13.9416 11.5413C14.0357 11.8345 14.0499 12.1418 13.9798 12.4324H13.9791C13.8246 13.0697 13.2272 13.4796 12.6741 13.9888C12.9721 14.553 13.3082 15.0935 13.6811 15.6049ZM13.9474 18.0524C14.9667 19.0726 16.155 19.9289 17.4345 20.5992C18.7663 21.2972 19.6032 19.4102 19.8892 19.3763L23.183 20.4486L22.9616 22.8947C22.9453 23.0609 22.9119 23.214 22.7167 23.1995C15.2942 22.6499 9.35676 16.7073 8.80695 9.27748L8.86437 9.10872C8.97774 8.98614 11.2086 8.82792 11.5233 8.79737C11.6777 8.78245 12.4899 11.5733 12.6163 11.9672C12.7788 12.4739 10.6501 13.1199 11.4055 14.565C12.0742 15.8431 12.93 17.0336 13.9474 18.0524Z" fill="white"/>
</g>
<defs>
<clipPath id="clip0_798_87">
<rect width="32" height="32" fill="white"/>
</clipPath>
</defs>
</svg>
